<svg width="18" height="18" viewBox="0 0 18 18" fill="none" xmlns="http://www.w3.org/2000/svg">
<path d="M9.00008 17.3333C4.39758 17.3333 0.666748 13.6025 0.666748 8.99996C0.666748 4.39746 4.39758 0.666626 9.00008 0.666626C13.6026 0.666626 17.3334 4.39746 17.3334 8.99996C17.3334 13.6025 13.6026 17.3333 9.00008 17.3333ZM6.08342 10.6666V12.3333H8.16675V14H9.83342V12.3333H10.6667C11.2193 12.3333 11.7492 12.1138 12.1399 11.7231C12.5306 11.3324 12.7501 10.8025 12.7501 10.25C12.7501 9.69743 12.5306 9.16752 12.1399 8.77682C11.7492 8.38612 11.2193 8.16663 10.6667 8.16663H7.33342C7.22291 8.16663 7.11693 8.12273 7.03879 8.04459C6.96065 7.96645 6.91675 7.86047 6.91675 7.74996C6.91675 7.63945 6.96065 7.53347 7.03879 7.45533C7.11693 7.37719 7.22291 7.33329 7.33342 7.33329H11.9167V5.66663H9.83342V3.99996H8.16675V5.66663H7.33342C6.78088 5.66663 6.25098 5.88612 5.86028 6.27682C5.46957 6.66752 5.25008 7.19743 5.25008 7.74996C5.25008 8.30249 5.46957 8.8324 5.86028 9.2231C6.25098 9.6138 6.78088 9.83329 7.33342 9.83329H10.6667C10.7773 9.83329 10.8832 9.87719 10.9614 9.95533C11.0395 10.0335 11.0834 10.1395 11.0834 10.25C11.0834 10.3605 11.0395 10.4664 10.9614 10.5446C10.8832 10.6227 10.7773 10.6666 10.6667 10.6666H6.08342Z" fill="#8E8E8E"/>
</svg>
