<svg width="14" height="13" viewBox="0 0 14 13" fill="none" xmlns="http://www.w3.org/2000/svg">
<path d="M7 12.75C3.54813 12.75 0.75 9.95187 0.75 6.5C0.75 3.04813 3.54813 0.25 7 0.25C10.4519 0.25 13.25 3.04813 13.25 6.5C13.25 9.95187 10.4519 12.75 7 12.75ZM7 11.5C8.32608 11.5 9.59785 10.9732 10.5355 10.0355C11.4732 9.09785 12 7.82608 12 6.5C12 5.17392 11.4732 3.90215 10.5355 2.96447C9.59785 2.02678 8.32608 1.5 7 1.5C5.67392 1.5 4.40215 2.02678 3.46447 2.96447C2.52678 3.90215 2 5.17392 2 6.5C2 7.82608 2.52678 9.09785 3.46447 10.0355C4.40215 10.9732 5.67392 11.5 7 11.5ZM7 5.61625L8.7675 3.84812L9.65187 4.7325L7.88375 6.5L9.65187 8.2675L8.7675 9.15187L7 7.38375L5.2325 9.15187L4.34812 8.2675L6.11625 6.5L4.34812 4.7325L5.2325 3.84812L7 5.61625Z" fill="#BF5F82"/>
</svg>
