<svg width="13" height="13" viewBox="0 0 13 13" fill="none" xmlns="http://www.w3.org/2000/svg">
<path d="M9.625 1.375H12.125C12.2908 1.375 12.4497 1.44085 12.5669 1.55806C12.6842 1.67527 12.75 1.83424 12.75 2V12C12.75 12.1658 12.6842 12.3247 12.5669 12.4419C12.4497 12.5592 12.2908 12.625 12.125 12.625H0.875C0.70924 12.625 0.550268 12.5592 0.433058 12.4419C0.315848 12.3247 0.25 12.1658 0.25 12V2C0.25 1.83424 0.315848 1.67527 0.433058 1.55806C0.550268 1.44085 0.70924 1.375 0.875 1.375H3.375V0.125H4.625V1.375H8.375V0.125H9.625V1.375ZM11.5 6.375H1.5V11.375H11.5V6.375ZM8.375 2.625H4.625V3.875H3.375V2.625H1.5V5.125H11.5V2.625H9.625V3.875H8.375V2.625ZM2.75 7.625H4V8.875H2.75V7.625ZM5.875 7.625H7.125V8.875H5.875V7.625ZM9 7.625H10.25V8.875H9V7.625Z" fill="#8E8E8E"/>
</svg>
