<svg width="15" height="13" viewBox="0 0 15 13" fill="none" xmlns="http://www.w3.org/2000/svg">
<path d="M13.25 7.75H12V3.52375L7.045 7.96125L2 3.51V10.875H8.25V12.125H1.375C1.20924 12.125 1.05027 12.0592 0.933058 11.9419C0.815848 11.8247 0.75 11.6658 0.75 11.5V1.5C0.75 1.33424 0.815848 1.17527 0.933058 1.05806C1.05027 0.940848 1.20924 0.875 1.375 0.875H12.625C12.7908 0.875 12.9497 0.940848 13.0669 1.05806C13.1842 1.17527 13.25 1.33424 13.25 1.5V7.75ZM2.31938 2.125L7.03813 6.28875L11.6888 2.125H2.31938ZM11.375 12.75L9.165 10.54L10.0494 9.65625L11.375 10.9825L13.585 8.7725L14.4688 9.65625L11.375 12.75Z" fill="#616161"/>
</svg>
