<svg width="14" height="14" viewBox="0 0 14 14" fill="none" xmlns="http://www.w3.org/2000/svg">
<path d="M0.901875 4.2838L6.68125 0.818805C6.77839 0.760523 6.88953 0.729736 7.00281 0.729736C7.11609 0.729736 7.22724 0.760523 7.32438 0.818805L13.0981 4.28443C13.1445 4.31219 13.1828 4.35148 13.2094 4.39847C13.236 4.44546 13.25 4.49855 13.25 4.55255V12.5001C13.25 12.6658 13.1842 12.8248 13.0669 12.942C12.9497 13.0592 12.7908 13.1251 12.625 13.1251H1.375C1.20924 13.1251 1.05027 13.0592 0.933058 12.942C0.815848 12.8248 0.75 12.6658 0.75 12.5001V4.55193C0.749989 4.49792 0.763974 4.44484 0.790591 4.39785C0.817208 4.35085 0.855549 4.31156 0.901875 4.2838ZM2 5.08318V11.8751H12V5.08255L7.0025 2.08255L2 5.08255V5.08318ZM7.0375 8.5613L10.3475 5.77193L11.1525 6.72818L7.04625 10.1888L2.8525 6.73255L3.6475 5.76755L7.0375 8.5613Z" fill="#616161"/>
</svg>
