<svg width="14" height="14" viewBox="0 0 14 14" fill="none" xmlns="http://www.w3.org/2000/svg">
<path d="M3.53437 10.875L0.75 13.0625V1.5C0.75 1.33424 0.815848 1.17527 0.933058 1.05806C1.05027 0.940848 1.20924 0.875 1.375 0.875H12.625C12.7908 0.875 12.9497 0.940848 13.0669 1.05806C13.1842 1.17527 13.25 1.33424 13.25 1.5V10.25C13.25 10.4158 13.1842 10.5747 13.0669 10.6919C12.9497 10.8092 12.7908 10.875 12.625 10.875H3.53437ZM3.10188 9.625H12V2.125H2V10.4906L3.10188 9.625ZM6.55813 6.57563L9.21 3.92438L10.0938 4.80813L6.55813 8.34375L4.12687 5.9125L5.01125 5.02875L6.55813 6.57563Z" fill="#616161"/>
</svg>
