<svg width="18" height="18" viewBox="0 0 18 18" fill="none" xmlns="http://www.w3.org/2000/svg">
<path d="M8.99999 17.3334C4.39749 17.3334 0.666656 13.6026 0.666656 9.00008C0.666656 4.39758 4.39749 0.666748 8.99999 0.666748C13.6025 0.666748 17.3333 4.39758 17.3333 9.00008C17.3333 13.6026 13.6025 17.3334 8.99999 17.3334ZM6.08332 10.6667V12.3334H8.16666V14.0001H9.83332V12.3334H10.6667C11.2192 12.3334 11.7491 12.1139 12.1398 11.7232C12.5305 11.3325 12.75 10.8026 12.75 10.2501C12.75 9.69755 12.5305 9.16764 12.1398 8.77694C11.7491 8.38624 11.2192 8.16675 10.6667 8.16675H7.33332C7.22282 8.16675 7.11684 8.12285 7.0387 8.04471C6.96056 7.96657 6.91666 7.86059 6.91666 7.75008C6.91666 7.63958 6.96056 7.53359 7.0387 7.45545C7.11684 7.37731 7.22282 7.33342 7.33332 7.33342H11.9167V5.66675H9.83332V4.00008H8.16666V5.66675H7.33332C6.78079 5.66675 6.25089 5.88624 5.86018 6.27694C5.46948 6.66764 5.24999 7.19755 5.24999 7.75008C5.24999 8.30262 5.46948 8.83252 5.86018 9.22322C6.25089 9.61392 6.78079 9.83342 7.33332 9.83342H10.6667C10.7772 9.83342 10.8831 9.87731 10.9613 9.95545C11.0394 10.0336 11.0833 10.1396 11.0833 10.2501C11.0833 10.3606 11.0394 10.4666 10.9613 10.5447C10.8831 10.6229 10.7772 10.6667 10.6667 10.6667H6.08332Z" fill="#8E8E8E"/>
</svg>
