<svg width="17" height="16" viewBox="0 0 17 16" fill="none" xmlns="http://www.w3.org/2000/svg">
<path d="M8.5 9.12489C8.20163 9.12489 7.91548 9.00636 7.7045 8.79538C7.49353 8.5844 7.375 8.29826 7.375 7.99989C7.375 7.70152 7.49353 7.41537 7.7045 7.20439C7.91548 6.99341 8.20163 6.87489 8.5 6.87489C8.79837 6.87489 9.08452 6.99341 9.2955 7.20439C9.50647 7.41537 9.625 7.70152 9.625 7.99989C9.625 8.29826 9.50647 8.5844 9.2955 8.79538C9.08452 9.00636 8.79837 9.12489 8.5 9.12489ZM8.104 11.3704C8.23525 11.5279 8.36725 11.6809 8.5 11.8271C8.63275 11.6809 8.76475 11.5286 8.896 11.3704C8.63203 11.376 8.36797 11.376 8.104 11.3704ZM6.60775 11.2766C6.0318 11.2167 5.45965 11.1246 4.894 11.0006C4.83775 11.2631 4.795 11.5181 4.7665 11.7626C4.624 12.9499 4.82275 13.6714 5.125 13.8454C5.42725 14.0201 6.151 13.8311 7.10875 13.1149C7.306 12.9671 7.50475 12.8029 7.70425 12.6236C7.31387 12.1955 6.9478 11.7458 6.60775 11.2766ZM12.106 11.0006C11.5683 11.1206 10.9937 11.2136 10.3923 11.2766C10.0522 11.7458 9.68613 12.1955 9.29575 12.6236C9.49525 12.8036 9.694 12.9671 9.89125 13.1149C10.849 13.8311 11.5728 14.0201 11.875 13.8454C12.1772 13.6714 12.3752 12.9499 12.2343 11.7626C12.2033 11.5068 12.1608 11.2526 12.1068 11.0006H12.106ZM13.1935 10.7104C13.6262 12.6896 13.399 14.2654 12.4375 14.8204C11.476 15.3754 9.99775 14.7844 8.5 13.4201C7.00225 14.7844 5.524 15.3746 4.5625 14.8196C3.601 14.2646 3.37375 12.6896 3.80575 10.7096C1.87525 10.0954 0.625 9.10989 0.625 7.99989C0.625 6.88989 1.87525 5.90514 3.80575 5.28939C3.37375 3.31014 3.601 1.73439 4.5625 1.17939C5.524 0.624387 7.00225 1.21539 8.5 2.57964C9.99775 1.21539 11.476 0.625137 12.4375 1.18014C13.399 1.73514 13.6263 3.31014 13.1943 5.29014C15.1248 5.90439 16.375 6.88989 16.375 7.99989C16.375 9.10989 15.1248 10.0946 13.1943 10.7104H13.1935ZM7.7035 3.37614C7.51277 3.20349 7.31432 3.03957 7.10875 2.88489C6.151 2.16864 5.42725 1.97964 5.125 2.15439C4.82275 2.32839 4.62475 3.04989 4.76575 4.23714C4.79575 4.48239 4.83775 4.73664 4.89325 4.99914C5.45915 4.87519 6.03154 4.78304 6.60775 4.72314C6.964 4.23339 7.3315 3.78264 7.70425 3.37614H7.7035ZM10.3923 4.72314C10.9937 4.78614 11.5683 4.87989 12.106 4.99914C12.1623 4.73664 12.205 4.48164 12.2335 4.23714C12.376 3.04989 12.1772 2.32839 11.875 2.15439C11.5728 1.97964 10.849 2.16864 9.89125 2.88489C9.68543 3.03956 9.48673 3.20347 9.29575 3.37614C9.6685 3.78264 10.036 4.23339 10.3923 4.72314ZM8.896 4.62939C8.76475 4.47189 8.63275 4.31889 8.5 4.17264C8.36725 4.31889 8.23525 4.47114 8.104 4.62939C8.36797 4.62378 8.63203 4.62378 8.896 4.62939ZM5.779 10.0279C5.64217 9.80221 5.51014 9.57366 5.383 9.34239C5.31175 9.53514 5.24575 9.72489 5.18575 9.91314C5.3785 9.95514 5.5765 9.99339 5.77825 10.0279H5.779ZM7.228 10.2034C8.07483 10.2663 8.92517 10.2663 9.772 10.2034C10.2499 9.50135 10.6751 8.76483 11.044 7.99989C10.6751 7.23495 10.2499 6.49842 9.772 5.79639C8.92517 5.73349 8.07483 5.73349 7.228 5.79639C6.7501 6.49842 6.32493 7.23495 5.956 7.99989C6.32493 8.76483 6.7501 9.50135 7.228 10.2034ZM11.617 6.65739C11.6883 6.46464 11.7543 6.27489 11.8143 6.08664C11.6176 6.04397 11.4201 6.00571 11.2218 5.97189C11.3583 6.19757 11.4901 6.42612 11.617 6.65739ZM4.0975 6.37764C3.8425 6.46014 3.601 6.55014 3.3745 6.64764C2.27575 7.11864 1.75 7.65114 1.75 7.99989C1.75 8.34864 2.275 8.88114 3.3745 9.35214C3.601 9.44964 3.8425 9.53964 4.0975 9.62214C4.264 9.09714 4.47025 8.55264 4.71625 7.99989C4.47987 7.47112 4.27329 6.92952 4.0975 6.37764ZM5.185 6.08664C5.24575 6.27414 5.31175 6.46464 5.383 6.65664C5.51015 6.42561 5.64218 6.19731 5.779 5.97189C5.5765 6.00639 5.3785 6.04464 5.18575 6.08664H5.185ZM12.9025 9.62214C13.1575 9.53964 13.399 9.44964 13.6255 9.35214C14.7242 8.88114 15.25 8.34864 15.25 7.99989C15.25 7.65114 14.725 7.11864 13.6255 6.64764C13.3887 6.54676 13.1475 6.45667 12.9025 6.37764C12.736 6.90264 12.5297 7.44714 12.2838 7.99989C12.5297 8.55264 12.736 9.09639 12.9025 9.62214ZM11.815 9.91314C11.7543 9.72564 11.6883 9.53514 11.617 9.34314C11.4899 9.57416 11.3578 9.80246 11.221 10.0279C11.4235 9.99339 11.6215 9.95514 11.8143 9.91314H11.815Z" fill="#616161"/>
</svg>
